{"glyphs":{"0":{"ha":652,"x_min":0,"x_max":652,"o":"m 171 0 l 55 116 l 55 584 l 171 700 l 481 700 l 597 584 l 597 116 l 481 0 l 171 0 z m 235 116 l 417 116 l 461 160 l 461 540 l 417 584 l 235 584 l 191 540 l 191 160 l 235 116 z"},"1":{"ha":382,"x_min":0,"x_max":382,"o":"m 176 0 l 176 555 l 25 477 l 25 602 l 203 700 l 312 700 l 312 0 l 176 0 z"},"2":{"ha":574,"x_min":0,"x_max":574,"o":"m 39 0 l 39 153 l 399 480 l 399 551 l 366 584 l 204 584 l 171 551 l 171 480 l 35 480 l 35 592 l 143 700 l 427 700 l 535 592 l 535 440 l 180 124 l 180 114 l 539 114 l 539 0 l 39 0 z"},"3":{"ha":603,"x_min":0,"x_max":603,"o":"m 143 0 l 35 108 l 35 218 l 171 218 l 171 149 l 204 116 l 384 116 l 417 149 l 417 262 l 385 294 l 185 294 l 185 410 l 385 410 l 417 442 l 417 551 l 384 584 l 210 584 l 177 551 l 177 482 l 41 482 l 41 592 l 149 700 l 445 700 l 553 592 l 553 402 l 502 352 l 553 301 l 553 108 l 445 0 l 143 0 z"},"4":{"ha":579,"x_min":0,"x_max":579,"o":"m 348 0 l 348 130 l 10 130 l 10 267 l 321 700 l 484 700 l 484 246 l 569 246 l 569 130 l 484 130 l 484 0 l 348 0 z m 143 242 l 354 242 l 354 548 l 350 548 l 143 256 l 143 242 z"},"5":{"ha":606,"x_min":0,"x_max":606,"o":"m 153 0 l 45 108 l 45 222 l 181 222 l 181 149 l 214 116 l 392 116 l 425 149 l 425 307 l 392 340 l 55 340 l 55 700 l 547 700 l 547 584 l 189 584 l 189 456 l 452 456 l 561 347 l 561 108 l 453 0 l 153 0 z"},"6":{"ha":622,"x_min":0,"x_max":622,"o":"m 163 0 l 55 108 l 55 592 l 163 700 l 465 700 l 573 592 l 573 492 l 437 492 l 437 549 l 402 584 l 226 584 l 191 549 l 191 384 l 250 441 l 469 441 l 577 333 l 577 108 l 469 0 l 163 0 z m 226 116 l 406 116 l 441 151 l 441 290 l 406 325 l 264 325 l 191 250 l 191 151 l 226 116 z"},"7":{"ha":522,"x_min":0,"x_max":522,"o":"m 72 0 l 355 575 l 355 584 l 5 584 l 5 700 l 497 700 l 497 572 l 216 0 l 72 0 z"},"8":{"ha":638,"x_min":0,"x_max":638,"o":"m 158 0 l 50 108 l 50 298 l 113 361 l 60 414 l 60 592 l 168 700 l 470 700 l 578 592 l 578 414 l 525 361 l 588 298 l 588 108 l 480 0 l 158 0 z m 231 412 l 407 412 l 442 447 l 442 549 l 407 584 l 231 584 l 196 549 l 196 447 l 231 412 z m 221 116 l 417 116 l 452 151 l 452 263 l 417 298 l 221 298 l 186 263 l 186 151 l 221 116 z"},"9":{"ha":627,"x_min":0,"x_max":627,"o":"m 168 0 l 60 108 l 60 197 l 196 197 l 196 151 l 231 116 l 401 116 l 436 151 l 436 312 l 379 255 l 158 255 l 50 363 l 50 592 l 158 700 l 464 700 l 572 592 l 572 108 l 464 0 l 168 0 z m 221 371 l 371 371 l 436 436 l 436 549 l 401 584 l 221 584 l 186 549 l 186 406 l 221 371 z"}," ":{"ha":272,"x_min":0,"x_max":272,"o":""},"a":{"ha":575,"x_min":0,"x_max":575,"o":"m 137 0 l 45 92 l 45 206 l 137 298 l 390 298 l 390 361 l 359 392 l 209 392 l 179 361 l 179 333 l 49 333 l 49 390 l 156 498 l 413 498 l 520 390 l 520 0 l 401 0 l 401 71 l 327 0 l 137 0 z m 200 102 l 318 102 l 390 171 l 390 204 l 202 204 l 175 177 l 175 127 l 200 102 z"},"b":{"ha":600,"x_min":0,"x_max":600,"o":"m 167 0 l 60 108 l 60 714 l 192 714 l 192 429 l 265 498 l 447 498 l 550 394 l 550 104 l 447 0 l 167 0 z m 230 112 l 380 112 l 418 151 l 418 347 l 380 386 l 282 386 l 192 296 l 192 151 l 230 112 z"},"c":{"ha":558,"x_min":0,"x_max":558,"o":"m 151 0 l 50 102 l 50 396 l 151 498 l 425 498 l 528 394 l 528 302 l 396 302 l 396 351 l 361 386 l 217 386 l 182 351 l 182 147 l 217 112 l 361 112 l 396 147 l 396 196 l 528 196 l 528 104 l 425 0 l 151 0 z"},"d":{"ha":602,"x_min":0,"x_max":602,"o":"m 153 0 l 50 104 l 50 394 l 153 498 l 351 498 l 410 447 l 410 714 l 542 714 l 542 0 l 418 0 l 418 77 l 341 0 l 153 0 z m 220 112 l 329 112 l 410 195 l 410 325 l 342 386 l 220 386 l 182 347 l 182 151 l 220 112 z"},"e":{"ha":583,"x_min":0,"x_max":583,"o":"m 151 0 l 50 102 l 50 394 l 153 498 l 434 498 l 538 394 l 538 205 l 182 205 l 182 141 l 214 108 l 377 108 l 407 139 l 407 165 l 537 165 l 537 100 l 438 0 l 151 0 z m 182 297 l 406 297 l 406 355 l 372 390 l 216 390 l 182 355 l 182 297 z"},"f":{"ha":400,"x_min":0,"x_max":400,"o":"m 105 0 l 105 387 l 15 387 l 15 498 l 105 498 l 105 597 l 206 698 l 390 698 l 390 589 l 263 589 l 235 561 l 235 498 l 390 498 l 390 387 l 237 387 l 237 0 l 105 0 z"},"g":{"ha":602,"x_min":0,"x_max":602,"o":"m 420 498 l 542 498 l 542 -114 l 434 -221 l 163 -221 l 70 -129 l 70 -61 l 202 -61 l 202 -91 l 221 -111 l 376 -111 l 410 -76 l 410 65 l 341 0 l 153 0 l 50 104 l 50 394 l 153 498 l 349 498 l 420 430 l 420 498 z m 410 195 l 410 325 l 342 386 l 220 386 l 182 347 l 182 151 l 220 112 l 329 112 l 410 195 z"},"h":{"ha":594,"x_min":0,"x_max":594,"o":"m 60 0 l 60 714 l 192 714 l 192 421 l 269 498 l 428 498 l 539 387 l 539 0 l 407 0 l 407 351 l 373 386 l 287 386 l 192 290 l 192 0 l 60 0 z"},"i":{"ha":272,"x_min":0,"x_max":272,"o":"m 101 556 l 55 602 l 55 666 l 101 712 l 171 712 l 217 666 l 217 602 l 171 556 l 101 556 z m 70 0 l 70 498 l 202 498 l 202 0 l 70 0 z"},"j":{"ha":287,"x_min":0,"x_max":287,"o":"m 116 556 l 70 602 l 70 666 l 116 712 l 186 712 l 232 666 l 232 602 l 186 556 l 116 556 z m -65 -218 l -65 -106 l 50 -106 l 85 -71 l 85 498 l 217 498 l 217 -111 l 110 -218 l -65 -218 z"},"k":{"ha":567,"x_min":0,"x_max":567,"o":"m 60 0 l 60 714 l 192 714 l 192 315 l 279 315 l 406 498 l 552 498 l 386 258 l 562 0 l 416 0 l 276 203 l 192 203 l 192 0 l 60 0 z"},"l":{"ha":262,"x_min":0,"x_max":262,"o":"m 65 0 l 65 714 l 197 714 l 197 0 l 65 0 z"},"m":{"ha":861,"x_min":0,"x_max":861,"o":"m 60 0 l 60 498 l 182 498 l 182 416 l 263 498 l 389 498 l 457 429 l 525 498 l 699 498 l 806 390 l 806 0 l 674 0 l 674 351 l 640 386 l 556 386 l 503 333 l 503 0 l 375 0 l 375 353 l 343 386 l 283 386 l 192 294 l 192 0 l 60 0 z"},"n":{"ha":592,"x_min":0,"x_max":592,"o":"m 60 0 l 60 498 l 182 498 l 182 415 l 265 498 l 426 498 l 537 387 l 537 0 l 405 0 l 405 351 l 371 386 l 287 386 l 192 290 l 192 0 l 60 0 z"},"o":{"ha":592,"x_min":0,"x_max":592,"o":"m 153 0 l 50 104 l 50 394 l 153 498 l 439 498 l 542 394 l 542 104 l 439 0 l 153 0 z m 217 110 l 375 110 l 410 145 l 410 353 l 375 388 l 217 388 l 182 353 l 182 145 l 217 110 z"},"p":{"ha":602,"x_min":0,"x_max":602,"o":"m 60 -212 l 60 498 l 182 498 l 182 425 l 255 498 l 449 498 l 552 394 l 552 104 l 449 0 l 256 0 l 192 53 l 192 -212 l 60 -212 z m 271 112 l 385 112 l 420 147 l 420 351 l 385 386 l 272 386 l 192 305 l 192 183 l 271 112 z"},"q":{"ha":595,"x_min":0,"x_max":595,"o":"m 408 -212 l 408 71 l 337 0 l 153 0 l 50 104 l 50 394 l 153 498 l 433 498 l 540 390 l 540 -212 l 408 -212 z m 216 112 l 319 112 l 408 207 l 408 351 l 374 386 l 216 386 l 182 351 l 182 147 l 216 112 z"},"r":{"ha":409,"x_min":0,"x_max":409,"o":"m 60 0 l 60 498 l 182 498 l 182 415 l 262 498 l 404 498 l 404 386 l 289 386 l 192 286 l 192 0 l 60 0 z"},"s":{"ha":536,"x_min":0,"x_max":536,"o":"m 132 0 l 35 98 l 35 159 l 165 159 l 165 131 l 187 108 l 349 108 l 371 131 l 371 174 l 348 198 l 133 198 l 39 293 l 39 402 l 134 498 l 394 498 l 491 400 l 491 339 l 361 339 l 361 367 l 339 390 l 191 390 l 169 367 l 169 328 l 192 304 l 407 304 l 501 209 l 501 96 l 406 0 l 132 0 z"},"t":{"ha":414,"x_min":0,"x_max":414,"o":"m 208 0 l 105 102 l 105 387 l 15 387 l 15 498 l 107 498 l 107 660 l 237 660 l 237 498 l 389 498 l 389 386 l 237 386 l 237 145 l 271 112 l 389 112 l 389 0 l 208 0 z"},"u":{"ha":591,"x_min":0,"x_max":591,"o":"m 160 0 l 55 105 l 55 498 l 187 498 l 187 146 l 221 112 l 301 112 l 399 210 l 399 498 l 531 498 l 531 0 l 409 0 l 409 85 l 323 0 l 160 0 z"},"v":{"ha":510,"x_min":0,"x_max":510,"o":"m 191 0 l 0 498 l 137 498 l 253 151 l 257 151 l 373 498 l 510 498 l 319 0 l 191 0 z"},"w":{"ha":729,"x_min":0,"x_max":729,"o":"m 140 0 l 20 498 l 154 498 l 211 184 l 215 184 l 305 498 l 425 498 l 508 184 l 512 184 l 575 498 l 709 498 l 580 0 l 457 0 l 365 336 l 361 336 l 263 0 l 140 0 z"},"x":{"ha":528,"x_min":0,"x_max":528,"o":"m 523 0 l 374 0 l 264 152 l 154 0 l 5 0 l 191 253 l 10 498 l 159 498 l 264 352 l 369 498 l 518 498 l 338 251 l 523 0 z"},"y":{"ha":593,"x_min":0,"x_max":593,"o":"m 401 498 l 533 498 l 533 -114 l 425 -221 l 163 -221 l 70 -129 l 70 -61 l 202 -61 l 202 -91 l 221 -111 l 367 -111 l 401 -76 l 401 74 l 327 0 l 162 0 l 55 108 l 55 498 l 187 498 l 187 147 l 221 112 l 308 112 l 401 211 l 401 498 z"},"z":{"ha":498,"x_min":0,"x_max":498,"o":"m 25 0 l 25 102 l 302 389 l 302 391 l 35 391 l 35 498 l 473 498 l 473 396 l 196 109 l 196 107 l 473 107 l 473 0 l 25 0 z"},"A":{"ha":646,"x_min":0,"x_max":646,"o":"m 5 0 l 261 700 l 385 700 l 641 0 l 503 0 l 446 155 l 200 155 l 143 0 l 5 0 z m 231 267 l 416 267 l 323 533 l 321 533 l 231 267 z"},"B":{"ha":670,"x_min":0,"x_max":670,"o":"m 65 0 l 65 700 l 504 700 l 604 600 l 604 404 l 564 363 l 635 291 l 635 108 l 527 0 l 65 0 z m 198 407 l 434 407 l 470 443 l 470 551 l 435 586 l 198 586 l 198 407 z m 198 114 l 458 114 l 501 157 l 501 255 l 458 298 l 198 298 l 198 114 z"},"C":{"ha":655,"x_min":0,"x_max":655,"o":"m 170 0 l 55 115 l 55 585 l 170 700 l 512 700 l 625 587 l 625 480 l 489 480 l 489 537 l 442 584 l 242 584 l 191 533 l 191 167 l 242 116 l 442 116 l 489 163 l 489 220 l 625 220 l 625 113 l 512 0 l 170 0 z"},"D":{"ha":688,"x_min":0,"x_max":688,"o":"m 65 0 l 65 700 l 513 700 l 633 580 l 633 120 l 513 0 l 65 0 z m 201 116 l 446 116 l 497 167 l 497 533 l 446 584 l 201 584 l 201 116 z"},"E":{"ha":606,"x_min":0,"x_max":606,"o":"m 65 0 l 65 700 l 571 700 l 571 585 l 201 585 l 201 408 l 542 408 l 542 295 l 201 295 l 201 115 l 571 115 l 571 0 l 65 0 z"},"F":{"ha":576,"x_min":0,"x_max":576,"o":"m 65 0 l 65 700 l 561 700 l 561 585 l 201 585 l 201 391 l 513 391 l 513 276 l 201 276 l 201 0 l 65 0 z"},"G":{"ha":676,"x_min":0,"x_max":676,"o":"m 170 0 l 55 115 l 55 585 l 170 700 l 518 700 l 631 587 l 631 480 l 495 480 l 495 537 l 448 584 l 242 584 l 191 533 l 191 167 l 242 116 l 450 116 l 499 165 l 499 274 l 349 274 l 349 390 l 631 390 l 631 115 l 516 0 l 170 0 z"},"H":{"ha":698,"x_min":0,"x_max":698,"o":"m 65 0 l 65 700 l 201 700 l 201 407 l 497 407 l 497 700 l 633 700 l 633 0 l 497 0 l 497 291 l 201 291 l 201 0 l 65 0 z"},"I":{"ha":276,"x_min":0,"x_max":276,"o":"m 70 0 l 70 700 l 206 700 l 206 0 l 70 0 z"},"J":{"ha":580,"x_min":0,"x_max":580,"o":"m 140 0 l 20 121 l 20 251 l 152 251 l 152 167 l 203 116 l 336 116 l 384 163 l 384 700 l 520 700 l 520 117 l 403 0 l 140 0 z"},"K":{"ha":651,"x_min":0,"x_max":651,"o":"m 65 0 l 65 700 l 201 700 l 201 407 l 307 407 l 476 700 l 629 700 l 424 351 l 646 0 l 490 0 l 306 291 l 201 291 l 201 0 l 65 0 z"},"L":{"ha":561,"x_min":0,"x_max":561,"o":"m 65 0 l 65 700 l 201 700 l 201 115 l 551 115 l 551 0 l 65 0 z"},"M":{"ha":801,"x_min":0,"x_max":801,"o":"m 65 0 l 65 700 l 191 700 l 399 248 l 401 248 l 610 700 l 736 700 l 736 0 l 605 0 l 605 426 l 603 426 l 442 98 l 358 98 l 198 426 l 196 426 l 196 0 l 65 0 z"},"N":{"ha":697,"x_min":0,"x_max":697,"o":"m 65 0 l 65 700 l 187 700 l 499 225 l 501 225 l 501 700 l 632 700 l 632 0 l 510 0 l 198 474 l 196 474 l 196 0 l 65 0 z"},"O":{"ha":700,"x_min":0,"x_max":700,"o":"m 170 0 l 55 115 l 55 585 l 170 700 l 530 700 l 645 585 l 645 115 l 530 0 l 170 0 z m 242 116 l 458 116 l 509 167 l 509 533 l 458 584 l 242 584 l 191 533 l 191 167 l 242 116 z"},"P":{"ha":646,"x_min":0,"x_max":646,"o":"m 65 0 l 65 700 l 504 700 l 611 592 l 611 347 l 503 238 l 201 238 l 201 0 l 65 0 z m 201 352 l 442 352 l 477 387 l 477 551 l 442 586 l 201 586 l 201 352 z"},"Q":{"ha":700,"x_min":0,"x_max":700,"o":"m 571 41 l 666 -56 l 582 -140 l 441 0 l 170 0 l 55 115 l 55 585 l 170 700 l 530 700 l 645 585 l 645 115 l 571 41 z m 242 116 l 458 116 l 509 167 l 509 533 l 458 584 l 242 584 l 191 533 l 191 167 l 242 116 z"},"R":{"ha":675,"x_min":0,"x_max":675,"o":"m 543 311 l 615 232 l 615 0 l 479 0 l 479 201 l 419 268 l 201 268 l 201 0 l 65 0 l 65 700 l 504 700 l 611 592 l 611 380 l 543 311 z m 201 586 l 201 380 l 442 380 l 477 415 l 477 551 l 442 586 l 201 586 z"},"S":{"ha":637,"x_min":0,"x_max":637,"o":"m 158 0 l 50 108 l 50 208 l 184 208 l 184 149 l 217 116 l 424 116 l 458 150 l 458 266 l 425 299 l 160 299 l 52 407 l 52 592 l 160 700 l 476 700 l 584 592 l 584 491 l 450 491 l 450 551 l 417 584 l 219 584 l 186 551 l 186 448 l 219 415 l 484 415 l 592 307 l 592 110 l 482 0 l 158 0 z"},"T":{"ha":584,"x_min":0,"x_max":584,"o":"m 224 0 l 224 585 l 15 585 l 15 700 l 569 700 l 569 585 l 360 585 l 360 0 l 224 0 z"},"U":{"ha":700,"x_min":0,"x_max":700,"o":"m 185 0 l 65 120 l 65 700 l 201 700 l 201 167 l 252 116 l 448 116 l 499 167 l 499 700 l 635 700 l 635 120 l 515 0 l 185 0 z"},"V":{"ha":650,"x_min":0,"x_max":650,"o":"m 259 0 l 10 700 l 150 700 l 324 162 l 326 162 l 500 700 l 640 700 l 391 0 l 259 0 z"},"W":{"ha":879,"x_min":0,"x_max":879,"o":"m 170 0 l 25 700 l 162 700 l 247 206 l 251 206 l 390 700 l 492 700 l 628 206 l 632 206 l 717 700 l 854 700 l 709 0 l 582 0 l 443 492 l 439 492 l 297 0 l 170 0 z"},"X":{"ha":652,"x_min":0,"x_max":652,"o":"m 5 0 l 249 361 l 15 700 l 168 700 l 326 470 l 484 700 l 637 700 l 403 357 l 647 0 l 494 0 l 326 247 l 158 0 l 5 0 z"},"Y":{"ha":634,"x_min":0,"x_max":634,"o":"m 249 0 l 249 286 l 0 700 l 149 700 l 316 413 l 318 413 l 485 700 l 634 700 l 385 286 l 385 0 l 249 0 z"},"Z":{"ha":592,"x_min":0,"x_max":592,"o":"m 35 0 l 35 108 l 394 584 l 394 586 l 45 586 l 45 700 l 557 700 l 557 592 l 198 116 l 198 114 l 557 114 l 557 0 l 35 0 z"},".":{"ha":238,"x_min":0,"x_max":238,"o":"m 83 0 l 40 43 l 40 107 l 83 150 l 156 150 l 198 106 l 198 44 l 156 0 l 83 0 z"},",":{"ha":238,"x_min":0,"x_max":238,"o":"m 63 -134 l 103 0 l 81 0 l 38 43 l 38 107 l 81 150 l 156 150 l 198 106 l 198 0 l 141 -134 l 63 -134 z"},"!":{"ha":274,"x_min":0,"x_max":274,"o":"m 85 202 l 69 566 l 69 700 l 205 700 l 205 566 l 189 202 l 85 202 z m 103 0 l 60 43 l 60 103 l 103 146 l 171 146 l 214 103 l 214 43 l 171 0 l 103 0 z"},"?":{"ha":562,"x_min":0,"x_max":562,"o":"m 208 191 l 208 314 l 388 488 l 388 533 l 337 584 l 206 584 l 159 537 l 159 480 l 25 480 l 25 578 l 147 700 l 396 700 l 522 574 l 522 448 l 340 272 l 340 191 l 208 191 z m 240 0 l 197 43 l 197 103 l 240 146 l 308 146 l 351 103 l 351 43 l 308 0 l 240 0 z"},"-":{"ha":432,"x_min":0,"x_max":432,"o":"m 40 200 l 40 314 l 392 314 l 392 200 l 40 200 z"},"_":{"ha":482,"x_min":0,"x_max":482,"o":"m 0 -122 l 0 -10 l 482 -10 l 482 -122 l 0 -122 z"},":":{"ha":232,"x_min":0,"x_max":232,"o":"m 81 316 l 40 357 l 40 419 l 81 460 l 152 460 l 192 418 l 192 358 l 152 316 l 81 316 z m 81 0 l 40 41 l 40 103 l 81 144 l 152 144 l 192 102 l 192 42 l 152 0 l 81 0 z"},";":{"ha":232,"x_min":0,"x_max":232,"o":"m 83 316 l 42 357 l 42 419 l 83 460 l 154 460 l 194 418 l 194 358 l 154 316 l 83 316 z m 65 -134 l 105 0 l 83 0 l 40 43 l 40 107 l 83 150 l 158 150 l 200 106 l 200 0 l 143 -134 l 65 -134 z"},"'":{"ha":256,"x_min":0,"x_max":256,"o":"m 76 440 l 60 586 l 60 700 l 196 700 l 196 586 l 180 440 l 76 440 z"},"\"":{"ha":460,"x_min":0,"x_max":460,"o":"m 76 440 l 60 586 l 60 700 l 196 700 l 196 586 l 180 440 l 76 440 z m 280 440 l 264 586 l 264 700 l 400 700 l 400 586 l 384 440 l 280 440 z"},"(":{"ha":348,"x_min":0,"x_max":348,"o":"m 193 -117 l 65 11 l 65 688 l 193 816 l 333 816 l 333 702 l 257 702 l 197 642 l 197 57 l 257 -3 l 333 -3 l 333 -117 l 193 -117 z"},")":{"ha":348,"x_min":0,"x_max":348,"o":"m 155 -117 l 15 -117 l 15 -3 l 91 -3 l 151 57 l 151 642 l 91 702 l 15 702 l 15 816 l 155 816 l 283 688 l 283 11 l 155 -117 z"},"[":{"ha":344,"x_min":0,"x_max":344,"o":"m 65 -117 l 65 816 l 329 816 l 329 702 l 197 702 l 197 -3 l 329 -3 l 329 -117 l 65 -117 z"},"]":{"ha":344,"x_min":0,"x_max":344,"o":"m 279 -117 l 15 -117 l 15 -3 l 147 -3 l 147 702 l 15 702 l 15 816 l 279 816 l 279 -117 z"},"{":{"ha":377,"x_min":0,"x_max":377,"o":"m 214 -117 l 108 -11 l 108 238 l 30 318 l 30 382 l 108 462 l 108 710 l 214 816 l 362 816 l 362 702 l 274 702 l 240 668 l 240 429 l 167 354 l 167 346 l 240 271 l 240 31 l 274 -3 l 362 -3 l 362 -117 l 214 -117 z"},"}":{"ha":377,"x_min":0,"x_max":377,"o":"m 163 -117 l 15 -117 l 15 -3 l 103 -3 l 137 31 l 137 271 l 210 346 l 210 354 l 137 429 l 137 668 l 103 702 l 15 702 l 15 816 l 163 816 l 269 710 l 269 462 l 347 382 l 347 318 l 269 238 l 269 -11 l 163 -117 z"},"/":{"ha":522,"x_min":0,"x_max":522,"o":"m 0 0 l 386 700 l 522 700 l 136 0 l 0 0 z"},"@":{"ha":835,"x_min":0,"x_max":835,"o":"m 554 105 l 507 152 l 507 172 l 437 105 l 320 105 l 225 200 l 225 378 l 321 474 l 443 474 l 493 424 l 493 470 l 587 470 l 587 203 l 634 203 l 681 252 l 681 402 l 544 539 l 303 539 l 156 392 l 156 195 l 301 50 l 714 50 l 714 -52 l 240 -52 l 40 148 l 40 439 l 242 641 l 599 641 l 795 445 l 795 216 l 684 105 l 554 105 z m 471 251 l 471 339 l 436 374 l 372 374 l 343 345 l 343 237 l 373 207 l 427 207 l 471 251 z"},"#":{"ha":717,"x_min":0,"x_max":717,"o":"m 677 416 l 557 416 l 535 288 l 657 288 l 657 174 l 515 174 l 485 0 l 353 0 l 383 174 l 272 174 l 242 0 l 110 0 l 140 174 l 40 174 l 40 288 l 160 288 l 182 416 l 60 416 l 60 530 l 202 530 l 231 700 l 363 700 l 334 530 l 445 530 l 474 700 l 606 700 l 577 530 l 677 530 l 677 416 z m 403 288 l 425 416 l 314 416 l 292 288 l 403 288 z"},"$":{"ha":637,"x_min":0,"x_max":637,"o":"m 484 415 l 592 307 l 592 110 l 482 0 l 380 0 l 380 -110 l 266 -110 l 266 0 l 158 0 l 50 108 l 50 208 l 184 208 l 184 149 l 217 116 l 266 116 l 266 299 l 160 299 l 52 407 l 52 592 l 160 700 l 266 700 l 266 810 l 380 810 l 380 700 l 476 700 l 584 592 l 584 491 l 450 491 l 450 551 l 417 584 l 380 584 l 380 415 l 484 415 z m 219 415 l 266 415 l 266 584 l 219 584 l 186 551 l 186 448 l 219 415 z m 458 150 l 458 266 l 425 299 l 380 299 l 380 116 l 424 116 l 458 150 z"},"%":{"ha":875,"x_min":0,"x_max":875,"o":"m 120 332 l 40 412 l 40 620 l 120 700 l 294 700 l 374 620 l 374 412 l 294 332 l 120 332 z m 178 0 l 561 700 l 697 700 l 314 0 l 178 0 z m 178 432 l 236 432 l 258 454 l 258 578 l 236 600 l 178 600 l 156 578 l 156 454 l 178 432 z m 581 0 l 501 80 l 501 288 l 581 368 l 755 368 l 835 288 l 835 80 l 755 0 l 581 0 z m 639 100 l 697 100 l 719 122 l 719 246 l 697 268 l 639 268 l 617 246 l 617 122 l 639 100 z"},"&":{"ha":662,"x_min":0,"x_max":662,"o":"m 157 0 l 50 107 l 50 297 l 112 360 l 79 394 l 79 592 l 186 700 l 454 700 l 559 594 l 559 520 l 427 520 l 427 552 l 396 584 l 242 584 l 211 552 l 211 436 l 244 402 l 458 402 l 458 468 l 586 468 l 586 402 l 652 402 l 652 288 l 588 288 l 588 108 l 481 0 l 157 0 z m 215 116 l 423 116 l 456 150 l 456 288 l 215 288 l 182 255 l 182 149 l 215 116 z"},"*":{"ha":349,"x_min":0,"x_max":349,"o":"m 132 441 l 144 521 l 77 468 l 40 538 l 127 570 l 40 604 l 77 674 l 144 620 l 132 700 l 217 700 l 205 620 l 272 674 l 309 604 l 222 570 l 309 538 l 272 468 l 205 521 l 217 441 l 132 441 z"},"+":{"ha":564,"x_min":0,"x_max":564,"o":"m 524 320 l 524 208 l 348 208 l 348 49 l 216 49 l 216 208 l 40 208 l 40 320 l 216 320 l 216 479 l 348 479 l 348 320 l 524 320 z"},"=":{"ha":564,"x_min":0,"x_max":564,"o":"m 40 296 l 40 408 l 524 408 l 524 296 l 40 296 z m 40 120 l 40 232 l 524 232 l 524 120 l 40 120 z"},"<":{"ha":614,"x_min":0,"x_max":614,"o":"m 584 0 l 40 233 l 40 347 l 584 572 l 584 442 l 202 293 l 202 287 l 584 130 l 584 0 z"},">":{"ha":614,"x_min":0,"x_max":614,"o":"m 40 0 l 40 130 l 422 287 l 422 293 l 40 442 l 40 572 l 584 347 l 584 233 l 40 0 z"}}}
